<svg xmlns="http://www.w3.org/2000/svg" fill="white" viewBox="-0.5 -0.5 24 24" height="30" width="30" id="Sports-Cricket--Streamline-Rounded----Material-Symbols">
  <path fill="#fff" d="M13.871875000000001 13.65625L11.476041666666667 16.052083333333336C11.316335416666668 16.211789583333335 11.112689583333335 16.291666666666668 10.865104166666667 16.291666666666668C10.61751875 16.291666666666668 10.413872916666667 16.211789583333335 10.254166666666666 16.052083333333336L2.15625 7.9541666666666675C1.996529375 7.789812500000001 1.9166666666666667 7.604997916666667 1.9166666666666667 7.399770833333333C1.9166666666666667 7.194352083333333 1.996529375 7.011789583333334 2.15625 6.852083333333334L4.552083333333334 4.456250000000001C4.711803958333333 4.296529375 4.915435416666667 4.192708333333334 5.163020833333333 4.144791666666667C5.410606250000001 4.096875000000001 5.614252083333334 4.152779375 5.773958333333334 4.3125L13.871875000000001 12.410416666666666C14.03158125 12.570122916666667 14.111458333333333 12.77779375 14.111458333333333 13.033333333333333C14.111458333333333 13.288872916666667 14.03158125 13.49654375 13.871875000000001 13.65625ZM10.877083333333333 14.638541666666667L12.458333333333334 13.057291666666668L5.222916666666667 5.821875L3.6416666666666666 7.403125L10.877083333333333 14.638541666666667ZM17.417708333333334 20.460416666666667L13.728125 16.770833333333336L14.782291666666667 15.716666666666667L18.471875 19.40625C18.615625 19.54295625 18.6875 19.71689375 18.6875 19.9280625C18.6875 20.13923125 18.615625 20.316666666666666 18.471875 20.460416666666667C18.328125 20.604166666666668 18.150689583333335 20.676041666666666 17.939520833333333 20.676041666666666C17.728352083333334 20.676041666666666 17.554414583333333 20.604166666666668 17.417708333333334 20.460416666666667ZM17.992708333333333 8.145833333333334C17.114252083333337 8.145833333333334 16.375520833333333 7.846354166666667 15.776562499999999 7.247395833333334C15.177604166666667 6.6484375 14.878125 5.90970625 14.878125 5.03125C14.878125 4.152779375 15.177604166666667 3.4140625 15.776562499999999 2.815104166666667C16.375520833333333 2.2161458333333335 17.114252083333337 1.9166666666666667 17.992708333333333 1.9166666666666667C18.871164583333332 1.9166666666666667 19.609895833333333 2.2161458333333335 20.208854166666665 2.815104166666667C20.8078125 3.4140625 21.107291666666665 4.152779375 21.107291666666665 5.03125C21.107291666666665 5.90970625 20.8078125 6.6484375 20.208854166666665 7.247395833333334C19.609895833333333 7.846354166666667 18.871164583333332 8.145833333333334 17.992708333333333 8.145833333333334ZM17.989833333333333 6.708333333333334C18.454960416666665 6.708333333333334 18.85123125 6.5455604166666665 19.178645833333334 6.2200625C19.506060416666667 5.8945645833333336 19.669791666666665 5.499252083333333 19.669791666666665 5.034125C19.669791666666665 4.569012291666667 19.50701875 4.172741458333333 19.181520833333334 3.8453125000000004C18.856022916666667 3.5178835416666665 18.460710416666668 3.354166666666667 17.995583333333332 3.354166666666667C17.53045625 3.354166666666667 17.134185416666668 3.5169252083333333 16.806770833333335 3.8424375000000004C16.479356250000002 4.167949791666667 16.315625 4.563262291666667 16.315625 5.0283750000000005C16.315625 5.4935020833333335 16.478397916666665 5.889772916666667 16.803895833333335 6.2171875C17.129393750000002 6.544602083333334 17.52470625 6.708333333333334 17.989833333333333 6.708333333333334Z" stroke-width="1"></path>
</svg>